<?xml version="1.0" encoding="utf-8" standalone="no"?>
<!DOCTYPE svg PUBLIC "-//W3C//DTD SVG 1.1//EN"
  "http://www.w3.org/Graphics/SVG/1.1/DTD/svg11.dtd">
<!-- Created with matplotlib (http://matplotlib.sourceforge.net/) -->
<svg height="432pt" version="1.1" viewBox="0 0 576 432" width="576pt" xmlns="http://www.w3.org/2000/svg" xmlns:xlink="http://www.w3.org/1999/xlink">
 <defs>
  <style type="text/css">
*{stroke-linecap:square;stroke-linejoin:round;}
  </style>
 </defs>
 <g id="figure_1">
  <g id="patch_1">
   <path d="
M0 432
L576 432
L576 0
L0 0
z
" style="fill:#ffffff;"/>
  </g>
  <g id="axes_1">
   <g id="patch_2">
    <path d="
M72 388.8
L429.12 388.8
L429.12 43.2
L72 43.2
z
" style="fill:#ffffff;"/>
   </g>
   <g id="line2d_1">
    <path clip-path="url(#p465f515fd4)" d="
M72 388.8
L72.2286 388.8
L72.3428 319.68
L72.4071 319.68
L72.5214 250.56
L73.3713 250.56
L73.4856 181.44
L73.7999 181.44
L73.9142 43.2
L395.694 43.2
L395.694 43.2" style="fill:none;stroke:#0000ff;"/>
   </g>
   <g id="line2d_2">
    <path clip-path="url(#p465f515fd4)" d="
M72 388.8
L72.2286 388.8
L72.3428 386.057
L73.2214 386.057
L73.3356 383.314
L73.5856 383.314
L73.6999 380.571
L81.7922 380.571
L81.9065 377.829
L94.5771 377.829
L94.6914 375.086
L96.277 375.086
L96.3913 372.343
L96.8984 372.343
L97.0127 369.6
L100.37 369.6
L100.484 366.857
L101.562 366.857
L101.677 364.114
L104.776 364.114
L104.898 358.629
L105.448 358.629
L105.562 355.886
L108.912 355.886
L109.04 347.657
L110.112 347.657
L110.226 344.914
L110.948 344.914
L111.062 342.171
L111.497 342.171
L111.612 339.429
L113.047 339.429
L113.162 336.686
L113.347 336.686
L113.469 331.2
L115.197 331.2
L115.312 328.457
L115.761 328.457
L115.876 325.714
L116.019 325.714
L116.154 314.743
L117.24 314.743
L117.354 312
L117.569 312
L117.69 306.514
L117.933 306.514
L118.047 303.771
L118.74 303.771
L118.854 301.029
L119.483 301.029
L119.597 298.286
L119.74 298.286
L119.854 295.543
L120.375 295.543
L120.49 292.8
L121.297 292.8
L121.411 290.057
L121.525 290.057
L121.64 287.314
L122.218 287.314
L122.332 284.571
L122.518 284.571
L122.632 281.829
L122.775 281.829
L122.911 270.857
L123.032 270.857
L123.154 265.371
L123.654 265.371
L123.768 262.629
L123.904 262.629
L124.018 259.886
L124.047 259.886
L124.168 254.4
L124.297 254.4
L124.411 251.657
L124.504 251.657
L124.618 248.914
L124.811 248.914
L124.925 246.171
L125.175 246.171
L125.289 243.429
L125.539 243.429
L125.654 240.686
L125.854 240.686
L125.975 235.2
L126.439 235.2
L126.554 232.457
L127.604 232.457
L127.718 229.714
L128.468 229.714
L128.582 226.971
L128.968 226.971
L129.082 224.229
L129.825 224.229
L129.939 221.486
L130.046 221.486
L130.161 218.743
L130.261 218.743
L130.375 216
L130.389 216
L130.503 213.257
L130.525 213.257
L130.639 210.514
L130.689 210.514
L130.803 207.771
L132.018 207.771
L132.139 202.286
L132.525 202.286
L132.639 199.543
L132.746 199.543
L132.86 196.8
L132.975 196.8
L133.089 194.057
L135.51 194.057
L135.624 191.314
L135.91 191.314
L136.024 188.571
L136.46 188.571
L136.582 183.086
L137.189 183.086
L137.303 180.343
L137.896 180.343
L138.017 174.857
L139.074 174.857
L139.196 169.371
L139.274 169.371
L139.389 166.629
L139.403 166.629
L139.517 163.886
L139.781 163.886
L139.896 161.143
L139.981 161.143
L140.103 155.657
L140.546 155.657
L140.66 152.914
L140.953 152.914
L141.067 150.171
L141.396 150.171
L141.51 147.429
L141.596 147.429
L141.71 144.686
L142.074 144.686
L142.188 141.943
L142.517 141.943
L142.631 139.2
L142.895 139.2
L143.01 136.457
L143.967 136.457
L144.081 133.714
L144.645 133.714
L144.76 130.971
L148.702 130.971
L148.817 128.229
L150.488 128.229
L150.602 125.486
L150.988 125.486
L151.102 122.743
L151.459 122.743
L151.573 120
L151.759 120
L151.873 117.257
L152.038 117.257
L152.152 114.514
L152.202 114.514
L152.323 109.029
L153.166 109.029
L153.281 106.286
L153.466 106.286
L153.58 103.543
L153.745 103.543
L153.859 100.8
L154.709 100.8
L154.838 92.5714
L155.723 92.5714
L155.837 89.8286
L156.237 89.8286
L156.352 87.0857
L157.445 87.0857
L157.559 84.3429
L159.309 84.3429
L159.423 81.6
L160.187 81.6
L160.301 78.8571
L160.916 78.8571
L161.03 76.1143
L166.294 76.1143
L166.408 73.3714
L166.815 73.3714
L166.93 70.6286
L169.494 70.6286
L169.608 67.8857
L169.894 67.8857
L170.008 65.1429
L173.851 65.1429
L173.965 62.4
L192.099 62.4
L192.214 59.6571
L199.42 59.6571
L199.535 56.9143
L218.826 56.9143
L218.941 54.1714
L323.291 54.1714
L323.405 51.4286
L332.612 51.4286
L332.726 48.6857
L393.072 48.6857
L393.187 45.9429
L395.694 45.9429
L395.694 45.9429" style="fill:none;stroke:#008000;"/>
   </g>
   <g id="line2d_3">
    <path clip-path="url(#p465f515fd4)" d="
M72 388.8
L72.2714 388.8
L72.3857 339.429
L72.7999 339.429
L72.9142 290.057
L93.6415 290.057
L93.7558 191.314
L104.769 191.314
L104.891 92.5714
L118.583 92.5714
L118.697 43.2
L395.694 43.2
L395.694 43.2" style="fill:none;stroke:#ff0000;"/>
   </g>
   <g id="line2d_4">
    <path clip-path="url(#p465f515fd4)" d="
M72 388.8
L72.25 388.8
L72.3714 386.121
L76.764 386.121
L76.8783 384.781
L79.0138 384.781
L79.1281 383.442
L79.7495 383.442
L79.8638 382.102
L81.1708 382.102
L81.2923 379.423
L82.4065 379.423
L82.5208 378.084
L83.4993 378.084
L83.6135 376.744
L84.6992 376.744
L84.8135 375.405
L85.3063 375.405
L85.4206 374.065
L85.5206 374.065
L85.6348 372.726
L86.4776 372.726
L86.5919 371.386
L87.3133 371.386
L87.4276 370.047
L87.6776 370.047
L87.7918 368.707
L87.8347 368.707
L87.949 367.367
L88.2632 367.367
L88.3847 364.688
L88.4204 364.688
L88.5418 362.009
L88.6418 362.009
L88.7561 360.67
L89.4989 360.67
L89.6132 359.33
L89.8989 359.33
L90.0346 353.972
L90.1488 353.972
L90.2631 352.633
L90.3274 352.633
L90.4488 349.953
L90.456 349.953
L90.5702 348.614
L90.8988 348.614
L91.0131 347.274
L91.1416 347.274
L91.2773 341.916
L91.4059 341.916
L91.5202 340.577
L91.613 340.577
L91.7273 339.237
L92.013 339.237
L92.1344 336.558
L92.5201 336.558
L92.6344 335.219
L92.8415 335.219
L92.9629 332.54
L93.0272 332.54
L93.1415 331.2
L93.1701 331.2
L93.2915 328.521
L93.3629 328.521
L93.4915 324.502
L93.5629 324.502
L93.6772 323.163
L93.6986 323.163
L93.8343 317.805
L93.8629 317.805
L93.9843 315.126
L94.1129 315.126
L94.2343 312.447
L94.3557 312.447
L94.47 311.107
L94.7914 311.107
L94.92 307.088
L95.1271 307.088
L95.2485 304.409
L95.3271 304.409
L95.4414 303.07
L95.4699 303.07
L95.5842 301.73
L95.6842 301.73
L95.8128 297.712
L95.9556 297.712
L96.0699 296.372
L96.0913 296.372
L96.2127 293.693
L96.3056 293.693
L96.4342 289.674
L96.4484 289.674
L96.5627 288.335
L96.5841 288.335
L96.7127 284.316
L96.827 284.316
L96.9413 282.977
L97.1627 282.977
L97.2912 278.958
L97.327 278.958
L97.4627 273.6
L97.5555 273.6
L97.6769 270.921
L97.7555 270.921
L97.8769 268.242
L97.8912 268.242
L98.0126 265.563
L98.184 265.563
L98.3055 262.884
L98.5269 262.884
L98.6483 258.865
L98.6554 258.865
L98.7697 257.526
L98.7911 257.526
L98.9197 253.507
L99.0197 253.507
L99.1411 250.828
L99.3911 250.828
L99.5125 248.149
L99.5482 248.149
L99.6697 245.47
L99.7339 245.47
L99.8696 240.112
L99.9125 240.112
L100.027 238.772
L100.07 238.772
L100.191 236.093
L100.341 236.093
L100.47 232.074
L100.82 232.074
L100.934 230.735
L101.077 230.735
L101.212 225.377
L101.227 225.377
L101.341 224.037
L101.37 224.037
L101.505 218.679
L101.605 218.679
L101.734 214.66
L101.748 214.66
L101.87 211.981
L101.891 211.981
L102.012 209.302
L102.148 209.302
L102.277 205.284
L102.412 205.284
L102.534 202.605
L102.734 202.605
L102.855 199.926
L102.862 199.926
L102.991 195.907
L103.441 195.907
L103.562 191.888
L103.634 191.888
L103.777 185.191
L103.784 185.191
L103.898 183.851
L104.234 183.851
L104.348 182.512
L104.369 182.512
L104.484 181.172
L104.512 181.172
L104.634 178.493
L104.705 178.493
L104.826 175.814
L104.941 175.814
L105.062 173.135
L105.384 173.135
L105.498 171.795
L105.598 171.795
L105.712 170.456
L105.791 170.456
L105.905 169.116
L105.969 169.116
L106.091 166.437
L106.326 166.437
L106.448 163.758
L106.512 163.758
L106.626 162.419
L106.662 162.419
L106.776 161.079
L106.862 161.079
L106.976 159.74
L107.233 159.74
L107.355 157.06
L107.383 157.06
L107.512 153.042
L107.612 153.042
L107.748 147.684
L107.891 147.684
L108.012 145.005
L108.362 145.005
L108.476 143.665
L108.655 143.665
L108.769 142.326
L108.798 142.326
L108.912 140.986
L109.126 140.986
L109.248 138.307
L109.548 138.307
L109.662 136.967
L109.769 136.967
L109.89 134.288
L110.062 134.288
L110.176 132.949
L110.262 132.949
L110.376 131.609
L111.105 131.609
L111.219 130.27
L111.233 130.27
L111.362 126.251
L111.39 126.251
L111.505 124.912
L111.64 124.912
L111.762 122.233
L111.89 122.233
L112.012 119.553
L112.112 119.553
L112.226 118.214
L112.262 118.214
L112.376 116.874
L112.483 116.874
L112.597 115.535
L112.719 115.535
L112.855 110.177
L113.105 110.177
L113.219 108.837
L113.269 108.837
L113.383 107.498
L113.719 107.498
L113.833 106.158
L114.347 106.158
L114.462 104.819
L114.84 104.819
L114.954 103.479
L114.997 103.479
L115.112 102.14
L115.147 102.14
L115.269 99.4605
L115.312 99.4605
L115.426 98.1209
L115.811 98.1209
L115.933 95.4419
L116.247 95.4419
L116.361 94.1023
L117.226 94.1023
L117.347 91.4233
L117.676 91.4233
L117.804 87.4047
L118.026 87.4047
L118.14 86.0651
L118.283 86.0651
L118.397 84.7256
L118.947 84.7256
L119.068 82.0465
L119.583 82.0465
L119.697 80.707
L119.704 80.707
L119.818 79.3674
L121.097 79.3674
L121.211 78.0279
L121.318 78.0279
L121.433 76.6884
L122.625 76.6884
L122.747 74.0093
L124.761 74.0093
L124.875 72.6698
L130.389 72.6698
L130.503 71.3302
L131.082 71.3302
L131.196 69.9907
L134.203 69.9907
L134.317 68.6512
L140.953 68.6512
L141.067 67.3116
L143.703 67.3116
L143.817 65.9721
L144.817 65.9721
L144.931 64.6326
L153.438 64.6326
L153.552 63.293
L161.43 63.293
L161.544 61.9535
L164.237 61.9535
L164.351 60.614
L164.88 60.614
L164.994 59.2744
L169.922 59.2744
L170.037 57.9349
L176.786 57.9349
L176.9 56.5953
L181.072 56.5953
L181.186 55.2558
L204.692 55.2558
L204.806 53.9163
L213.191 53.9163
L213.305 52.5767
L214.069 52.5767
L214.184 51.2372
L214.869 51.2372
L214.984 49.8977
L217.362 49.8977
L217.484 47.2186
L263.595 47.2186
L263.709 45.8791
L278.558 45.8791
L278.672 44.5395
L291.493 44.5395
L291.607 43.2
L395.694 43.2
L395.694 43.2" style="fill:none;stroke:#00bfbf;"/>
   </g>
   <g id="line2d_5">
    <path clip-path="url(#p465f515fd4)" d="
M72 388.8
L72.2428 388.8
L72.3571 387.515
L72.5143 387.515
L72.6285 386.23
L73.3713 386.23
L73.4856 384.946
L79.5495 384.946
L79.6638 383.661
L81.2351 383.661
L81.3494 382.376
L82.4065 382.376
L82.5208 381.091
L85.5206 381.091
L85.6348 379.807
L87.3133 379.807
L87.4276 378.522
L88.2632 378.522
L88.3847 375.952
L88.4204 375.952
L88.5489 372.098
L88.6418 372.098
L88.7561 370.813
L89.4989 370.813
L89.6132 369.529
L89.8917 369.529
L90.0131 366.959
L90.3274 366.959
L90.4417 365.674
L90.456 365.674
L90.5702 364.39
L91.1988 364.39
L91.313 363.105
L92.2916 363.105
L92.4058 361.82
L92.5201 361.82
L92.6344 360.535
L93.0272 360.535
L93.1415 359.251
L93.1701 359.251
L93.2915 356.681
L93.4558 356.681
L93.5772 354.112
L93.7558 354.112
L93.8843 350.257
L94.1129 350.257
L94.2343 347.688
L94.3557 347.688
L94.47 346.403
L94.8343 346.403
L94.9485 345.118
L95.1271 345.118
L95.2485 342.549
L95.3271 342.549
L95.4414 341.264
L95.4699 341.264
L95.5842 339.979
L95.6842 339.979
L95.7985 338.694
L95.9556 338.694
L96.0699 337.41
L96.1127 337.41
L96.227 336.125
L96.3627 336.125
L96.4913 332.271
L96.827 332.271
L96.9413 330.986
L97.1627 330.986
L97.277 329.701
L97.327 329.701
L97.4484 327.132
L97.5127 327.132
L97.6341 324.562
L97.6555 324.562
L97.7698 323.277
L97.8912 323.277
L98.0126 320.708
L98.2769 320.708
L98.3912 319.423
L98.5054 319.423
L98.6412 314.284
L98.7911 314.284
L98.9126 311.714
L99.0197 311.714
L99.1411 309.145
L99.4625 309.145
L99.5839 306.575
L99.7982 306.575
L99.9196 302.721
L100.07 302.721
L100.184 301.436
L100.341 301.436
L100.455 300.152
L100.462 300.152
L100.577 298.867
L100.698 298.867
L100.812 297.582
L100.848 297.582
L100.977 293.728
L101.141 293.728
L101.27 289.874
L101.37 289.874
L101.491 287.304
L101.605 287.304
L101.727 284.735
L101.748 284.735
L101.877 280.88
L101.891 280.88
L102.005 279.596
L102.148 279.596
L102.269 277.026
L102.412 277.026
L102.534 274.457
L102.734 274.457
L102.848 273.172
L103.348 273.172
L103.469 270.602
L103.548 270.602
L103.669 268.033
L103.691 268.033
L103.819 264.178
L104.512 264.178
L104.634 261.609
L104.705 261.609
L104.826 259.039
L104.941 259.039
L105.069 255.185
L105.384 255.185
L105.498 253.9
L105.598 253.9
L105.719 251.331
L105.791 251.331
L105.905 250.046
L105.969 250.046
L106.084 248.761
L106.626 248.761
L106.748 246.192
L107.312 246.192
L107.426 244.907
L107.455 244.907
L107.569 243.622
L107.641 243.622
L107.755 242.338
L107.891 242.338
L108.019 235.914
L108.248 235.914
L108.362 234.629
L108.791 234.629
L108.919 230.775
L108.94 230.775
L109.062 228.205
L109.083 228.205
L109.205 225.636
L109.269 225.636
L109.383 223.066
L109.398 223.066
L109.519 220.497
L109.669 220.497
L109.79 217.927
L109.798 217.927
L109.919 215.358
L110.112 215.358
L110.226 212.788
L110.262 212.788
L110.383 210.219
L110.548 210.219
L110.669 207.649
L110.69 207.649
L110.812 205.08
L111.197 205.08
L111.326 201.225
L111.39 201.225
L111.505 199.941
L111.526 199.941
L111.64 198.656
L111.669 198.656
L111.79 196.086
L111.812 196.086
L111.955 189.662
L112.112 189.662
L112.226 188.378
L112.262 188.378
L112.376 187.093
L112.462 187.093
L112.583 184.523
L112.719 184.523
L112.847 180.669
L113.069 180.669
L113.19 178.1
L113.269 178.1
L113.39 175.53
L113.869 175.53
L113.983 174.245
L114.012 174.245
L114.126 172.961
L114.326 172.961
L114.44 171.676
L114.526 171.676
L114.64 170.391
L114.84 170.391
L114.954 169.106
L115.197 169.106
L115.319 166.537
L115.576 166.537
L115.711 161.398
L115.826 161.398
L115.94 160.113
L115.969 160.113
L116.09 157.543
L116.283 157.543
L116.397 156.259
L117.226 156.259
L117.347 153.689
L117.69 153.689
L117.804 151.12
L118.026 151.12
L118.14 149.835
L118.197 149.835
L118.311 148.55
L118.947 148.55
L119.068 144.696
L119.49 144.696
L119.611 142.126
L119.933 142.126
L120.047 140.842
L120.375 140.842
L120.497 138.272
L120.975 138.272
L121.09 136.987
L121.097 136.987
L121.218 134.418
L121.297 134.418
L121.418 131.848
L121.44 131.848
L121.554 130.564
L122.14 130.564
L122.254 129.279
L122.59 129.279
L122.718 125.425
L122.875 125.425
L122.997 122.855
L123.34 122.855
L123.461 120.286
L124.518 120.286
L124.639 117.716
L125.525 117.716
L125.639 116.431
L125.747 116.431
L125.861 115.146
L126.039 115.146
L126.154 113.862
L126.211 113.862
L126.325 112.577
L126.475 112.577
L126.597 110.007
L127.289 110.007
L127.404 108.723
L127.761 108.723
L127.875 107.438
L127.954 107.438
L128.075 104.868
L128.339 104.868
L128.454 103.584
L128.604 103.584
L128.718 102.299
L128.932 102.299
L129.046 101.014
L129.125 101.014
L129.239 99.7294
L129.418 99.7294
L129.539 97.1599
L130.389 97.1599
L130.503 95.8751
L132.425 95.8751
L132.539 94.5903
L132.889 94.5903
L133.003 93.3056
L133.46 93.3056
L133.575 92.0208
L134.203 92.0208
L134.317 90.7361
L134.725 90.7361
L134.839 89.4513
L134.903 89.4513
L135.017 88.1665
L135.325 88.1665
L135.439 86.8818
L135.817 86.8818
L135.932 85.597
L137.189 85.597
L137.303 84.3123
L138.003 84.3123
L138.117 83.0275
L139.317 83.0275
L139.439 80.458
L139.981 80.458
L140.096 79.1732
L140.953 79.1732
L141.067 77.8885
L142.517 77.8885
L142.631 76.6037
L143.588 76.6037
L143.71 74.0342
L143.967 74.0342
L144.081 72.7494
L144.645 72.7494
L144.76 71.4647
L144.817 71.4647
L144.931 70.1799
L150.374 70.1799
L150.488 68.8952
L153.438 68.8952
L153.552 67.6104
L159.616 67.6104
L159.73 66.3257
L164.237 66.3257
L164.351 65.0409
L164.88 65.0409
L164.994 63.7561
L176.786 63.7561
L176.9 62.4714
L181.072 62.4714
L181.186 61.1866
L199.42 61.1866
L199.535 59.9019
L204.692 59.9019
L204.806 58.6171
L213.191 58.6171
L213.305 57.3323
L214.069 57.3323
L214.184 56.0476
L214.869 56.0476
L214.984 54.7628
L217.362 54.7628
L217.484 52.1933
L241.746 52.1933
L241.861 50.9086
L242.361 50.9086
L242.475 49.6238
L244.718 49.6238
L244.832 48.339
L251.267 48.339
L251.381 47.0543
L263.595 47.0543
L263.709 45.7695
L278.558 45.7695
L278.672 44.4848
L291.493 44.4848
L291.607 43.2
L395.694 43.2
L395.694 43.2" style="fill:none;stroke:#000000;stroke-width:2;"/>
   </g>
   <g id="matplotlib.axis_1">
    <g id="xtick_1">
     <g id="line2d_6">
      <defs>
       <path d="
M0 0
L0 -4" id="m0012dd4eef" style="stroke:#000000;stroke-linecap:butt;stroke-width:0.5;"/>
      </defs>
      <g>
       <use style="stroke:#000000;stroke-linecap:butt;stroke-width:0.5;" x="72.0" xlink:href="#m0012dd4eef" y="388.8"/>
      </g>
     </g>
     <g id="line2d_7">
      <defs>
       <path d="
M0 0
L0 4" id="m476344969c" style="stroke:#000000;stroke-linecap:butt;stroke-width:0.5;"/>
      </defs>
      <g>
       <use style="stroke:#000000;stroke-linecap:butt;stroke-width:0.5;" x="72.0" xlink:href="#m476344969c" y="43.2"/>
      </g>
     </g>
     <g id="text_1">
      <!-- 0 -->
      <defs>
       <path d="
M31.7812 66.4062
Q24.1719 66.4062 20.3281 58.9062
Q16.5 51.4219 16.5 36.375
Q16.5 21.3906 20.3281 13.8906
Q24.1719 6.39062 31.7812 6.39062
Q39.4531 6.39062 43.2812 13.8906
Q47.125 21.3906 47.125 36.375
Q47.125 51.4219 43.2812 58.9062
Q39.4531 66.4062 31.7812 66.4062
M31.7812 74.2188
Q44.0469 74.2188 50.5156 64.5156
Q56.9844 54.8281 56.9844 36.375
Q56.9844 17.9688 50.5156 8.26562
Q44.0469 -1.42188 31.7812 -1.42188
Q19.5312 -1.42188 13.0625 8.26562
Q6.59375 17.9688 6.59375 36.375
Q6.59375 54.8281 13.0625 64.5156
Q19.5312 74.2188 31.7812 74.2188" id="DejaVuSans-30"/>
      </defs>
      <g transform="translate(68.9765625 401.70625)scale(0.12 -0.12)">
       <use xlink:href="#DejaVuSans-30"/>
      </g>
     </g>
    </g>
    <g id="xtick_2">
     <g id="line2d_8">
      <g>
       <use style="stroke:#000000;stroke-linecap:butt;stroke-width:0.5;" x="143.424" xlink:href="#m0012dd4eef" y="388.8"/>
      </g>
     </g>
     <g id="line2d_9">
      <g>
       <use style="stroke:#000000;stroke-linecap:butt;stroke-width:0.5;" x="143.424" xlink:href="#m476344969c" y="43.2"/>
      </g>
     </g>
     <g id="text_2">
      <!-- 1000 -->
      <defs>
       <path d="
M12.4062 8.29688
L28.5156 8.29688
L28.5156 63.9219
L10.9844 60.4062
L10.9844 69.3906
L28.4219 72.9062
L38.2812 72.9062
L38.2812 8.29688
L54.3906 8.29688
L54.3906 0
L12.4062 0
z
" id="DejaVuSans-31"/>
      </defs>
      <g transform="translate(129.2115 401.70625)scale(0.12 -0.12)">
       <use xlink:href="#DejaVuSans-31"/>
       <use x="63.623046875" xlink:href="#DejaVuSans-30"/>
       <use x="127.24609375" xlink:href="#DejaVuSans-30"/>
       <use x="190.869140625" xlink:href="#DejaVuSans-30"/>
      </g>
     </g>
    </g>
    <g id="xtick_3">
     <g id="line2d_10">
      <g>
       <use style="stroke:#000000;stroke-linecap:butt;stroke-width:0.5;" x="214.848" xlink:href="#m0012dd4eef" y="388.8"/>
      </g>
     </g>
     <g id="line2d_11">
      <g>
       <use style="stroke:#000000;stroke-linecap:butt;stroke-width:0.5;" x="214.848" xlink:href="#m476344969c" y="43.2"/>
      </g>
     </g>
     <g id="text_3">
      <!-- 2000 -->
      <defs>
       <path d="
M19.1875 8.29688
L53.6094 8.29688
L53.6094 0
L7.32812 0
L7.32812 8.29688
Q12.9375 14.1094 22.625 23.8906
Q32.3281 33.6875 34.8125 36.5312
Q39.5469 41.8438 41.4219 45.5312
Q43.3125 49.2188 43.3125 52.7812
Q43.3125 58.5938 39.2344 62.25
Q35.1562 65.9219 28.6094 65.9219
Q23.9688 65.9219 18.8125 64.3125
Q13.6719 62.7031 7.8125 59.4219
L7.8125 69.3906
Q13.7656 71.7812 18.9375 73
Q24.125 74.2188 28.4219 74.2188
Q39.75 74.2188 46.4844 68.5469
Q53.2188 62.8906 53.2188 53.4219
Q53.2188 48.9219 51.5312 44.8906
Q49.8594 40.875 45.4062 35.4062
Q44.1875 33.9844 37.6406 27.2188
Q31.1094 20.4531 19.1875 8.29688" id="DejaVuSans-32"/>
      </defs>
      <g transform="translate(200.416125 401.70625)scale(0.12 -0.12)">
       <use xlink:href="#DejaVuSans-32"/>
       <use x="63.623046875" xlink:href="#DejaVuSans-30"/>
       <use x="127.24609375" xlink:href="#DejaVuSans-30"/>
       <use x="190.869140625" xlink:href="#DejaVuSans-30"/>
      </g>
     </g>
    </g>
    <g id="xtick_4">
     <g id="line2d_12">
      <g>
       <use style="stroke:#000000;stroke-linecap:butt;stroke-width:0.5;" x="286.272" xlink:href="#m0012dd4eef" y="388.8"/>
      </g>
     </g>
     <g id="line2d_13">
      <g>
       <use style="stroke:#000000;stroke-linecap:butt;stroke-width:0.5;" x="286.272" xlink:href="#m476344969c" y="43.2"/>
      </g>
     </g>
     <g id="text_4">
      <!-- 3000 -->
      <defs>
       <path d="
M40.5781 39.3125
Q47.6562 37.7969 51.625 33
Q55.6094 28.2188 55.6094 21.1875
Q55.6094 10.4062 48.1875 4.48438
Q40.7656 -1.42188 27.0938 -1.42188
Q22.5156 -1.42188 17.6562 -0.515625
Q12.7969 0.390625 7.625 2.20312
L7.625 11.7188
Q11.7188 9.32812 16.5938 8.10938
Q21.4844 6.89062 26.8125 6.89062
Q36.0781 6.89062 40.9375 10.5469
Q45.7969 14.2031 45.7969 21.1875
Q45.7969 27.6406 41.2812 31.2656
Q36.7656 34.9062 28.7188 34.9062
L20.2188 34.9062
L20.2188 43.0156
L29.1094 43.0156
Q36.375 43.0156 40.2344 45.9219
Q44.0938 48.8281 44.0938 54.2969
Q44.0938 59.9062 40.1094 62.9062
Q36.1406 65.9219 28.7188 65.9219
Q24.6562 65.9219 20.0156 65.0312
Q15.375 64.1562 9.8125 62.3125
L9.8125 71.0938
Q15.4375 72.6562 20.3438 73.4375
Q25.25 74.2188 29.5938 74.2188
Q40.8281 74.2188 47.3594 69.1094
Q53.9062 64.0156 53.9062 55.3281
Q53.9062 49.2656 50.4375 45.0938
Q46.9688 40.9219 40.5781 39.3125" id="DejaVuSans-33"/>
      </defs>
      <g transform="translate(271.8579375 401.70625)scale(0.12 -0.12)">
       <use xlink:href="#DejaVuSans-33"/>
       <use x="63.623046875" xlink:href="#DejaVuSans-30"/>
       <use x="127.24609375" xlink:href="#DejaVuSans-30"/>
       <use x="190.869140625" xlink:href="#DejaVuSans-30"/>
      </g>
     </g>
    </g>
    <g id="xtick_5">
     <g id="line2d_14">
      <g>
       <use style="stroke:#000000;stroke-linecap:butt;stroke-width:0.5;" x="357.696" xlink:href="#m0012dd4eef" y="388.8"/>
      </g>
     </g>
     <g id="line2d_15">
      <g>
       <use style="stroke:#000000;stroke-linecap:butt;stroke-width:0.5;" x="357.696" xlink:href="#m476344969c" y="43.2"/>
      </g>
     </g>
     <g id="text_5">
      <!-- 4000 -->
      <defs>
       <path d="
M37.7969 64.3125
L12.8906 25.3906
L37.7969 25.3906
z

M35.2031 72.9062
L47.6094 72.9062
L47.6094 25.3906
L58.0156 25.3906
L58.0156 17.1875
L47.6094 17.1875
L47.6094 0
L37.7969 0
L37.7969 17.1875
L4.89062 17.1875
L4.89062 26.7031
z
" id="DejaVuSans-34"/>
      </defs>
      <g transform="translate(343.117875 401.70625)scale(0.12 -0.12)">
       <use xlink:href="#DejaVuSans-34"/>
       <use x="63.623046875" xlink:href="#DejaVuSans-30"/>
       <use x="127.24609375" xlink:href="#DejaVuSans-30"/>
       <use x="190.869140625" xlink:href="#DejaVuSans-30"/>
      </g>
     </g>
    </g>
    <g id="xtick_6">
     <g id="line2d_16">
      <g>
       <use style="stroke:#000000;stroke-linecap:butt;stroke-width:0.5;" x="429.12" xlink:href="#m0012dd4eef" y="388.8"/>
      </g>
     </g>
     <g id="line2d_17">
      <g>
       <use style="stroke:#000000;stroke-linecap:butt;stroke-width:0.5;" x="429.12" xlink:href="#m476344969c" y="43.2"/>
      </g>
     </g>
     <g id="text_6">
      <!-- 5000 -->
      <defs>
       <path d="
M10.7969 72.9062
L49.5156 72.9062
L49.5156 64.5938
L19.8281 64.5938
L19.8281 46.7344
Q21.9688 47.4688 24.1094 47.8281
Q26.2656 48.1875 28.4219 48.1875
Q40.625 48.1875 47.75 41.5
Q54.8906 34.8125 54.8906 23.3906
Q54.8906 11.625 47.5625 5.09375
Q40.2344 -1.42188 26.9062 -1.42188
Q22.3125 -1.42188 17.5469 -0.640625
Q12.7969 0.140625 7.71875 1.70312
L7.71875 11.625
Q12.1094 9.23438 16.7969 8.0625
Q21.4844 6.89062 26.7031 6.89062
Q35.1562 6.89062 40.0781 11.3281
Q45.0156 15.7656 45.0156 23.3906
Q45.0156 31 40.0781 35.4375
Q35.1562 39.8906 26.7031 39.8906
Q22.75 39.8906 18.8125 39.0156
Q14.8906 38.1406 10.7969 36.2812
z
" id="DejaVuSans-35"/>
      </defs>
      <g transform="translate(414.7115625 401.70625)scale(0.12 -0.12)">
       <use xlink:href="#DejaVuSans-35"/>
       <use x="63.623046875" xlink:href="#DejaVuSans-30"/>
       <use x="127.24609375" xlink:href="#DejaVuSans-30"/>
       <use x="190.869140625" xlink:href="#DejaVuSans-30"/>
      </g>
     </g>
    </g>
    <g id="text_7">
     <!-- ms -->
     <defs>
      <path d="
M52 44.1875
Q55.375 50.25 60.0625 53.125
Q64.75 56 71.0938 56
Q79.6406 56 84.2812 50.0156
Q88.9219 44.0469 88.9219 33.0156
L88.9219 0
L79.8906 0
L79.8906 32.7188
Q79.8906 40.5781 77.0938 44.375
Q74.3125 48.1875 68.6094 48.1875
Q61.625 48.1875 57.5625 43.5469
Q53.5156 38.9219 53.5156 30.9062
L53.5156 0
L44.4844 0
L44.4844 32.7188
Q44.4844 40.625 41.7031 44.4062
Q38.9219 48.1875 33.1094 48.1875
Q26.2188 48.1875 22.1562 43.5312
Q18.1094 38.875 18.1094 30.9062
L18.1094 0
L9.07812 0
L9.07812 54.6875
L18.1094 54.6875
L18.1094 46.1875
Q21.1875 51.2188 25.4844 53.6094
Q29.7812 56 35.6875 56
Q41.6562 56 45.8281 52.9688
Q50 49.9531 52 44.1875" id="DejaVuSans-6d"/>
      <path d="
M44.2812 53.0781
L44.2812 44.5781
Q40.4844 46.5312 36.375 47.5
Q32.2812 48.4844 27.875 48.4844
Q21.1875 48.4844 17.8438 46.4375
Q14.5 44.3906 14.5 40.2812
Q14.5 37.1562 16.8906 35.375
Q19.2812 33.5938 26.5156 31.9844
L29.5938 31.2969
Q39.1562 29.25 43.1875 25.5156
Q47.2188 21.7812 47.2188 15.0938
Q47.2188 7.46875 41.1875 3.01562
Q35.1562 -1.42188 24.6094 -1.42188
Q20.2188 -1.42188 15.4531 -0.5625
Q10.6875 0.296875 5.42188 2
L5.42188 11.2812
Q10.4062 8.6875 15.2344 7.39062
Q20.0625 6.10938 24.8125 6.10938
Q31.1562 6.10938 34.5625 8.28125
Q37.9844 10.4531 37.9844 14.4062
Q37.9844 18.0625 35.5156 20.0156
Q33.0625 21.9688 24.7031 23.7812
L21.5781 24.5156
Q13.2344 26.2656 9.51562 29.9062
Q5.8125 33.5469 5.8125 39.8906
Q5.8125 47.6094 11.2812 51.7969
Q16.75 56 26.8125 56
Q31.7812 56 36.1719 55.2656
Q40.5781 54.5469 44.2812 53.0781" id="DejaVuSans-73"/>
     </defs>
     <g transform="translate(242.4271875 413.596875)scale(0.12 -0.12)">
      <use xlink:href="#DejaVuSans-6d"/>
      <use x="97.412109375" xlink:href="#DejaVuSans-73"/>
     </g>
    </g>
   </g>
   <g id="matplotlib.axis_2">
    <g id="ytick_1">
     <g id="line2d_18">
      <defs>
       <path d="
M0 0
L4 0" id="me8a85f7bf6" style="stroke:#000000;stroke-linecap:butt;stroke-width:0.5;"/>
      </defs>
      <g>
       <use style="stroke:#000000;stroke-linecap:butt;stroke-width:0.5;" x="72.0" xlink:href="#me8a85f7bf6" y="388.8"/>
      </g>
     </g>
     <g id="line2d_19">
      <defs>
       <path d="
M0 0
L-4 0" id="m1a32005dea" style="stroke:#000000;stroke-linecap:butt;stroke-width:0.5;"/>
      </defs>
      <g>
       <use style="stroke:#000000;stroke-linecap:butt;stroke-width:0.5;" x="429.12" xlink:href="#m1a32005dea" y="388.8"/>
      </g>
     </g>
     <g id="text_8">
      <!-- 0.0 -->
      <defs>
       <path d="
M10.6875 12.4062
L21 12.4062
L21 0
L10.6875 0
z
" id="DejaVuSans-2e"/>
      </defs>
      <g transform="translate(50.504375 393.1678125)scale(0.12 -0.12)">
       <use xlink:href="#DejaVuSans-30"/>
       <use x="63.623046875" xlink:href="#DejaVuSans-2e"/>
       <use x="95.41015625" xlink:href="#DejaVuSans-30"/>
      </g>
     </g>
    </g>
    <g id="ytick_2">
     <g id="line2d_20">
      <g>
       <use style="stroke:#000000;stroke-linecap:butt;stroke-width:0.5;" x="72.0" xlink:href="#me8a85f7bf6" y="319.68"/>
      </g>
     </g>
     <g id="line2d_21">
      <g>
       <use style="stroke:#000000;stroke-linecap:butt;stroke-width:0.5;" x="429.12" xlink:href="#m1a32005dea" y="319.68"/>
      </g>
     </g>
     <g id="text_9">
      <!-- 0.2 -->
      <g transform="translate(50.909375 324.0478125)scale(0.12 -0.12)">
       <use xlink:href="#DejaVuSans-30"/>
       <use x="63.623046875" xlink:href="#DejaVuSans-2e"/>
       <use x="95.41015625" xlink:href="#DejaVuSans-32"/>
      </g>
     </g>
    </g>
    <g id="ytick_3">
     <g id="line2d_22">
      <g>
       <use style="stroke:#000000;stroke-linecap:butt;stroke-width:0.5;" x="72.0" xlink:href="#me8a85f7bf6" y="250.56"/>
      </g>
     </g>
     <g id="line2d_23">
      <g>
       <use style="stroke:#000000;stroke-linecap:butt;stroke-width:0.5;" x="429.12" xlink:href="#m1a32005dea" y="250.56"/>
      </g>
     </g>
     <g id="text_10">
      <!-- 0.4 -->
      <g transform="translate(50.380625 254.9278125)scale(0.12 -0.12)">
       <use xlink:href="#DejaVuSans-30"/>
       <use x="63.623046875" xlink:href="#DejaVuSans-2e"/>
       <use x="95.41015625" xlink:href="#DejaVuSans-34"/>
      </g>
     </g>
    </g>
    <g id="ytick_4">
     <g id="line2d_24">
      <g>
       <use style="stroke:#000000;stroke-linecap:butt;stroke-width:0.5;" x="72.0" xlink:href="#me8a85f7bf6" y="181.44"/>
      </g>
     </g>
     <g id="line2d_25">
      <g>
       <use style="stroke:#000000;stroke-linecap:butt;stroke-width:0.5;" x="429.12" xlink:href="#m1a32005dea" y="181.44"/>
      </g>
     </g>
     <g id="text_11">
      <!-- 0.6 -->
      <defs>
       <path d="
M33.0156 40.375
Q26.375 40.375 22.4844 35.8281
Q18.6094 31.2969 18.6094 23.3906
Q18.6094 15.5312 22.4844 10.9531
Q26.375 6.39062 33.0156 6.39062
Q39.6562 6.39062 43.5312 10.9531
Q47.4062 15.5312 47.4062 23.3906
Q47.4062 31.2969 43.5312 35.8281
Q39.6562 40.375 33.0156 40.375
M52.5938 71.2969
L52.5938 62.3125
Q48.875 64.0625 45.0938 64.9844
Q41.3125 65.9219 37.5938 65.9219
Q27.8281 65.9219 22.6719 59.3281
Q17.5312 52.7344 16.7969 39.4062
Q19.6719 43.6562 24.0156 45.9219
Q28.375 48.1875 33.5938 48.1875
Q44.5781 48.1875 50.9531 41.5156
Q57.3281 34.8594 57.3281 23.3906
Q57.3281 12.1562 50.6875 5.35938
Q44.0469 -1.42188 33.0156 -1.42188
Q20.3594 -1.42188 13.6719 8.26562
Q6.98438 17.9688 6.98438 36.375
Q6.98438 53.6562 15.1875 63.9375
Q23.3906 74.2188 37.2031 74.2188
Q40.9219 74.2188 44.7031 73.4844
Q48.4844 72.75 52.5938 71.2969" id="DejaVuSans-36"/>
      </defs>
      <g transform="translate(50.463125 185.8078125)scale(0.12 -0.12)">
       <use xlink:href="#DejaVuSans-30"/>
       <use x="63.623046875" xlink:href="#DejaVuSans-2e"/>
       <use x="95.41015625" xlink:href="#DejaVuSans-36"/>
      </g>
     </g>
    </g>
    <g id="ytick_5">
     <g id="line2d_26">
      <g>
       <use style="stroke:#000000;stroke-linecap:butt;stroke-width:0.5;" x="72.0" xlink:href="#me8a85f7bf6" y="112.32"/>
      </g>
     </g>
     <g id="line2d_27">
      <g>
       <use style="stroke:#000000;stroke-linecap:butt;stroke-width:0.5;" x="429.12" xlink:href="#m1a32005dea" y="112.32"/>
      </g>
     </g>
     <g id="text_12">
      <!-- 0.8 -->
      <defs>
       <path d="
M31.7812 34.625
Q24.75 34.625 20.7188 30.8594
Q16.7031 27.0938 16.7031 20.5156
Q16.7031 13.9219 20.7188 10.1562
Q24.75 6.39062 31.7812 6.39062
Q38.8125 6.39062 42.8594 10.1719
Q46.9219 13.9688 46.9219 20.5156
Q46.9219 27.0938 42.8906 30.8594
Q38.875 34.625 31.7812 34.625
M21.9219 38.8125
Q15.5781 40.375 12.0312 44.7188
Q8.5 49.0781 8.5 55.3281
Q8.5 64.0625 14.7188 69.1406
Q20.9531 74.2188 31.7812 74.2188
Q42.6719 74.2188 48.875 69.1406
Q55.0781 64.0625 55.0781 55.3281
Q55.0781 49.0781 51.5312 44.7188
Q48 40.375 41.7031 38.8125
Q48.8281 37.1562 52.7969 32.3125
Q56.7812 27.4844 56.7812 20.5156
Q56.7812 9.90625 50.3125 4.23438
Q43.8438 -1.42188 31.7812 -1.42188
Q19.7344 -1.42188 13.25 4.23438
Q6.78125 9.90625 6.78125 20.5156
Q6.78125 27.4844 10.7812 32.3125
Q14.7969 37.1562 21.9219 38.8125
M18.3125 54.3906
Q18.3125 48.7344 21.8438 45.5625
Q25.3906 42.3906 31.7812 42.3906
Q38.1406 42.3906 41.7188 45.5625
Q45.3125 48.7344 45.3125 54.3906
Q45.3125 60.0625 41.7188 63.2344
Q38.1406 66.4062 31.7812 66.4062
Q25.3906 66.4062 21.8438 63.2344
Q18.3125 60.0625 18.3125 54.3906" id="DejaVuSans-38"/>
      </defs>
      <g transform="translate(50.52875 116.6878125)scale(0.12 -0.12)">
       <use xlink:href="#DejaVuSans-30"/>
       <use x="63.623046875" xlink:href="#DejaVuSans-2e"/>
       <use x="95.41015625" xlink:href="#DejaVuSans-38"/>
      </g>
     </g>
    </g>
    <g id="ytick_6">
     <g id="line2d_28">
      <g>
       <use style="stroke:#000000;stroke-linecap:butt;stroke-width:0.5;" x="72.0" xlink:href="#me8a85f7bf6" y="43.2"/>
      </g>
     </g>
     <g id="line2d_29">
      <g>
       <use style="stroke:#000000;stroke-linecap:butt;stroke-width:0.5;" x="429.12" xlink:href="#m1a32005dea" y="43.2"/>
      </g>
     </g>
     <g id="text_13">
      <!-- 1.0 -->
      <g transform="translate(51.03125 47.5678125)scale(0.12 -0.12)">
       <use xlink:href="#DejaVuSans-31"/>
       <use x="63.623046875" xlink:href="#DejaVuSans-2e"/>
       <use x="95.41015625" xlink:href="#DejaVuSans-30"/>
      </g>
     </g>
    </g>
    <g id="text_14">
     <!-- Cumulative probability -->
     <defs>
      <path d="
M56.2031 29.5938
L56.2031 25.2031
L14.8906 25.2031
Q15.4844 15.9219 20.4844 11.0625
Q25.4844 6.20312 34.4219 6.20312
Q39.5938 6.20312 44.4531 7.46875
Q49.3125 8.73438 54.1094 11.2812
L54.1094 2.78125
Q49.2656 0.734375 44.1875 -0.34375
Q39.1094 -1.42188 33.8906 -1.42188
Q20.7969 -1.42188 13.1562 6.1875
Q5.51562 13.8125 5.51562 26.8125
Q5.51562 40.2344 12.7656 48.1094
Q20.0156 56 32.3281 56
Q43.3594 56 49.7812 48.8906
Q56.2031 41.7969 56.2031 29.5938
M47.2188 32.2344
Q47.125 39.5938 43.0938 43.9844
Q39.0625 48.3906 32.4219 48.3906
Q24.9062 48.3906 20.3906 44.1406
Q15.875 39.8906 15.1875 32.1719
z
" id="DejaVuSans-65"/>
      <path d="
M30.6094 48.3906
Q23.3906 48.3906 19.1875 42.75
Q14.9844 37.1094 14.9844 27.2969
Q14.9844 17.4844 19.1562 11.8438
Q23.3438 6.20312 30.6094 6.20312
Q37.7969 6.20312 41.9844 11.8594
Q46.1875 17.5312 46.1875 27.2969
Q46.1875 37.0156 41.9844 42.7031
Q37.7969 48.3906 30.6094 48.3906
M30.6094 56
Q42.3281 56 49.0156 48.375
Q55.7188 40.7656 55.7188 27.2969
Q55.7188 13.875 49.0156 6.21875
Q42.3281 -1.42188 30.6094 -1.42188
Q18.8438 -1.42188 12.1719 6.21875
Q5.51562 13.875 5.51562 27.2969
Q5.51562 40.7656 12.1719 48.375
Q18.8438 56 30.6094 56" id="DejaVuSans-6f"/>
      <path d="
M48.6875 27.2969
Q48.6875 37.2031 44.6094 42.8438
Q40.5312 48.4844 33.4062 48.4844
Q26.2656 48.4844 22.1875 42.8438
Q18.1094 37.2031 18.1094 27.2969
Q18.1094 17.3906 22.1875 11.75
Q26.2656 6.10938 33.4062 6.10938
Q40.5312 6.10938 44.6094 11.75
Q48.6875 17.3906 48.6875 27.2969
M18.1094 46.3906
Q20.9531 51.2656 25.2656 53.625
Q29.5938 56 35.5938 56
Q45.5625 56 51.7812 48.0938
Q58.0156 40.1875 58.0156 27.2969
Q58.0156 14.4062 51.7812 6.48438
Q45.5625 -1.42188 35.5938 -1.42188
Q29.5938 -1.42188 25.2656 0.953125
Q20.9531 3.32812 18.1094 8.20312
L18.1094 0
L9.07812 0
L9.07812 75.9844
L18.1094 75.9844
z
" id="DejaVuSans-62"/>
      <path d="
M64.4062 67.2812
L64.4062 56.8906
Q59.4219 61.5312 53.7812 63.8125
Q48.1406 66.1094 41.7969 66.1094
Q29.2969 66.1094 22.6562 58.4688
Q16.0156 50.8281 16.0156 36.375
Q16.0156 21.9688 22.6562 14.3281
Q29.2969 6.6875 41.7969 6.6875
Q48.1406 6.6875 53.7812 8.98438
Q59.4219 11.2812 64.4062 15.9219
L64.4062 5.60938
Q59.2344 2.09375 53.4375 0.328125
Q47.6562 -1.42188 41.2188 -1.42188
Q24.6562 -1.42188 15.125 8.70312
Q5.60938 18.8438 5.60938 36.375
Q5.60938 53.9531 15.125 64.0781
Q24.6562 74.2188 41.2188 74.2188
Q47.75 74.2188 53.5312 72.4844
Q59.3281 70.75 64.4062 67.2812" id="DejaVuSans-43"/>
      <path d="
M9.42188 75.9844
L18.4062 75.9844
L18.4062 0
L9.42188 0
z
" id="DejaVuSans-6c"/>
      <path id="DejaVuSans-20"/>
      <path d="
M32.1719 -5.07812
Q28.375 -14.8438 24.75 -17.8125
Q21.1406 -20.7969 15.0938 -20.7969
L7.90625 -20.7969
L7.90625 -13.2812
L13.1875 -13.2812
Q16.8906 -13.2812 18.9375 -11.5156
Q21 -9.76562 23.4844 -3.21875
L25.0938 0.875
L2.98438 54.6875
L12.5 54.6875
L29.5938 11.9219
L46.6875 54.6875
L56.2031 54.6875
z
" id="DejaVuSans-79"/>
      <path d="
M9.42188 54.6875
L18.4062 54.6875
L18.4062 0
L9.42188 0
z

M9.42188 75.9844
L18.4062 75.9844
L18.4062 64.5938
L9.42188 64.5938
z
" id="DejaVuSans-69"/>
      <path d="
M8.5 21.5781
L8.5 54.6875
L17.4844 54.6875
L17.4844 21.9219
Q17.4844 14.1562 20.5 10.2656
Q23.5312 6.39062 29.5938 6.39062
Q36.8594 6.39062 41.0781 11.0312
Q45.3125 15.6719 45.3125 23.6875
L45.3125 54.6875
L54.2969 54.6875
L54.2969 0
L45.3125 0
L45.3125 8.40625
Q42.0469 3.42188 37.7188 1
Q33.4062 -1.42188 27.6875 -1.42188
Q18.2656 -1.42188 13.375 4.4375
Q8.5 10.2969 8.5 21.5781
M31.1094 56
z
" id="DejaVuSans-75"/>
      <path d="
M18.3125 70.2188
L18.3125 54.6875
L36.8125 54.6875
L36.8125 47.7031
L18.3125 47.7031
L18.3125 18.0156
Q18.3125 11.3281 20.1406 9.42188
Q21.9688 7.51562 27.5938 7.51562
L36.8125 7.51562
L36.8125 0
L27.5938 0
Q17.1875 0 13.2344 3.875
Q9.28125 7.76562 9.28125 18.0156
L9.28125 47.7031
L2.6875 47.7031
L2.6875 54.6875
L9.28125 54.6875
L9.28125 70.2188
z
" id="DejaVuSans-74"/>
      <path d="
M2.98438 54.6875
L12.5 54.6875
L29.5938 8.79688
L46.6875 54.6875
L56.2031 54.6875
L35.6875 0
L23.4844 0
z
" id="DejaVuSans-76"/>
      <path d="
M41.1094 46.2969
Q39.5938 47.1719 37.8125 47.5781
Q36.0312 48 33.8906 48
Q26.2656 48 22.1875 43.0469
Q18.1094 38.0938 18.1094 28.8125
L18.1094 0
L9.07812 0
L9.07812 54.6875
L18.1094 54.6875
L18.1094 46.1875
Q20.9531 51.1719 25.4844 53.5781
Q30.0312 56 36.5312 56
Q37.4531 56 38.5781 55.875
Q39.7031 55.7656 41.0625 55.5156
z
" id="DejaVuSans-72"/>
      <path d="
M18.1094 8.20312
L18.1094 -20.7969
L9.07812 -20.7969
L9.07812 54.6875
L18.1094 54.6875
L18.1094 46.3906
Q20.9531 51.2656 25.2656 53.625
Q29.5938 56 35.5938 56
Q45.5625 56 51.7812 48.0938
Q58.0156 40.1875 58.0156 27.2969
Q58.0156 14.4062 51.7812 6.48438
Q45.5625 -1.42188 35.5938 -1.42188
Q29.5938 -1.42188 25.2656 0.953125
Q20.9531 3.32812 18.1094 8.20312
M48.6875 27.2969
Q48.6875 37.2031 44.6094 42.8438
Q40.5312 48.4844 33.4062 48.4844
Q26.2656 48.4844 22.1875 42.8438
Q18.1094 37.2031 18.1094 27.2969
Q18.1094 17.3906 22.1875 11.75
Q26.2656 6.10938 33.4062 6.10938
Q40.5312 6.10938 44.6094 11.75
Q48.6875 17.3906 48.6875 27.2969" id="DejaVuSans-70"/>
      <path d="
M34.2812 27.4844
Q23.3906 27.4844 19.1875 25
Q14.9844 22.5156 14.9844 16.5
Q14.9844 11.7188 18.1406 8.90625
Q21.2969 6.10938 26.7031 6.10938
Q34.1875 6.10938 38.7031 11.4062
Q43.2188 16.7031 43.2188 25.4844
L43.2188 27.4844
z

M52.2031 31.2031
L52.2031 0
L43.2188 0
L43.2188 8.29688
Q40.1406 3.32812 35.5469 0.953125
Q30.9531 -1.42188 24.3125 -1.42188
Q15.9219 -1.42188 10.9531 3.29688
Q6 8.01562 6 15.9219
Q6 25.1406 12.1719 29.8281
Q18.3594 34.5156 30.6094 34.5156
L43.2188 34.5156
L43.2188 35.4062
Q43.2188 41.6094 39.1406 45
Q35.0625 48.3906 27.6875 48.3906
Q23 48.3906 18.5469 47.2656
Q14.1094 46.1406 10.0156 43.8906
L10.0156 52.2031
Q14.9375 54.1094 19.5781 55.0469
Q24.2188 56 28.6094 56
Q40.4844 56 46.3438 49.8438
Q52.2031 43.7031 52.2031 31.2031" id="DejaVuSans-61"/>
     </defs>
     <g transform="translate(45.380625 281.488125)rotate(-90.0)scale(0.12 -0.12)">
      <use xlink:href="#DejaVuSans-43"/>
      <use x="69.82421875" xlink:href="#DejaVuSans-75"/>
      <use x="133.203125" xlink:href="#DejaVuSans-6d"/>
      <use x="230.615234375" xlink:href="#DejaVuSans-75"/>
      <use x="293.994140625" xlink:href="#DejaVuSans-6c"/>
      <use x="321.77734375" xlink:href="#DejaVuSans-61"/>
      <use x="383.056640625" xlink:href="#DejaVuSans-74"/>
      <use x="422.265625" xlink:href="#DejaVuSans-69"/>
      <use x="450.048828125" xlink:href="#DejaVuSans-76"/>
      <use x="509.228515625" xlink:href="#DejaVuSans-65"/>
      <use x="570.751953125" xlink:href="#DejaVuSans-20"/>
      <use x="602.5390625" xlink:href="#DejaVuSans-70"/>
      <use x="666.015625" xlink:href="#DejaVuSans-72"/>
      <use x="704.87890625" xlink:href="#DejaVuSans-6f"/>
      <use x="766.060546875" xlink:href="#DejaVuSans-62"/>
      <use x="829.537109375" xlink:href="#DejaVuSans-61"/>
      <use x="890.81640625" xlink:href="#DejaVuSans-62"/>
      <use x="954.29296875" xlink:href="#DejaVuSans-69"/>
      <use x="982.076171875" xlink:href="#DejaVuSans-6c"/>
      <use x="1009.859375" xlink:href="#DejaVuSans-69"/>
      <use x="1037.64257812" xlink:href="#DejaVuSans-74"/>
      <use x="1076.8515625" xlink:href="#DejaVuSans-79"/>
     </g>
    </g>
   </g>
   <g id="patch_3">
    <path d="
M72 43.2
L429.12 43.2" style="fill:none;stroke:#000000;"/>
   </g>
   <g id="patch_4">
    <path d="
M429.12 388.8
L429.12 43.2" style="fill:none;stroke:#000000;"/>
   </g>
   <g id="patch_5">
    <path d="
M72 388.8
L429.12 388.8" style="fill:none;stroke:#000000;"/>
   </g>
   <g id="patch_6">
    <path d="
M72 388.8
L72 43.2" style="fill:none;stroke:#000000;"/>
   </g>
   <g id="legend_1">
    <g id="patch_7">
     <path d="
M446.976 136.172
L520.801 136.172
L520.801 43.2
L446.976 43.2
L446.976 136.172
z
" style="fill:#ffffff;stroke:#000000;"/>
    </g>
    <g id="text_15">
     <!-- Ping (ms) -->
     <defs>
      <path d="
M45.4062 27.9844
Q45.4062 37.75 41.375 43.1094
Q37.3594 48.4844 30.0781 48.4844
Q22.8594 48.4844 18.8281 43.1094
Q14.7969 37.75 14.7969 27.9844
Q14.7969 18.2656 18.8281 12.8906
Q22.8594 7.51562 30.0781 7.51562
Q37.3594 7.51562 41.375 12.8906
Q45.4062 18.2656 45.4062 27.9844
M54.3906 6.78125
Q54.3906 -7.17188 48.1875 -13.9844
Q42 -20.7969 29.2031 -20.7969
Q24.4688 -20.7969 20.2656 -20.0938
Q16.0625 -19.3906 12.1094 -17.9219
L12.1094 -9.1875
Q16.0625 -11.3281 19.9219 -12.3438
Q23.7812 -13.375 27.7812 -13.375
Q36.625 -13.375 41.0156 -8.76562
Q45.4062 -4.15625 45.4062 5.17188
L45.4062 9.625
Q42.625 4.78125 38.2812 2.39062
Q33.9375 0 27.875 0
Q17.8281 0 11.6719 7.65625
Q5.51562 15.3281 5.51562 27.9844
Q5.51562 40.6719 11.6719 48.3281
Q17.8281 56 27.875 56
Q33.9375 56 38.2812 53.6094
Q42.625 51.2188 45.4062 46.3906
L45.4062 54.6875
L54.3906 54.6875
z
" id="DejaVuSans-67"/>
      <path d="
M31 75.875
Q24.4688 64.6562 21.2812 53.6562
Q18.1094 42.6719 18.1094 31.3906
Q18.1094 20.125 21.3125 9.0625
Q24.5156 -2 31 -13.1875
L23.1875 -13.1875
Q15.875 -1.70312 12.2344 9.375
Q8.59375 20.4531 8.59375 31.3906
Q8.59375 42.2812 12.2031 53.3125
Q15.8281 64.3594 23.1875 75.875
z
" id="DejaVuSans-28"/>
      <path d="
M19.6719 64.7969
L19.6719 37.4062
L32.0781 37.4062
Q38.9688 37.4062 42.7188 40.9688
Q46.4844 44.5312 46.4844 51.125
Q46.4844 57.6719 42.7188 61.2344
Q38.9688 64.7969 32.0781 64.7969
z

M9.8125 72.9062
L32.0781 72.9062
Q44.3438 72.9062 50.6094 67.3594
Q56.8906 61.8125 56.8906 51.125
Q56.8906 40.3281 50.6094 34.8125
Q44.3438 29.2969 32.0781 29.2969
L19.6719 29.2969
L19.6719 0
L9.8125 0
z
" id="DejaVuSans-50"/>
      <path d="
M8.01562 75.875
L15.8281 75.875
Q23.1406 64.3594 26.7812 53.3125
Q30.4219 42.2812 30.4219 31.3906
Q30.4219 20.4531 26.7812 9.375
Q23.1406 -1.70312 15.8281 -13.1875
L8.01562 -13.1875
Q14.5 -2 17.7031 9.0625
Q20.9062 20.125 20.9062 31.3906
Q20.9062 42.6719 17.7031 53.6562
Q14.5 64.6562 8.01562 75.875" id="DejaVuSans-29"/>
      <path d="
M54.8906 33.0156
L54.8906 0
L45.9062 0
L45.9062 32.7188
Q45.9062 40.4844 42.875 44.3281
Q39.8438 48.1875 33.7969 48.1875
Q26.5156 48.1875 22.3125 43.5469
Q18.1094 38.9219 18.1094 30.9062
L18.1094 0
L9.07812 0
L9.07812 54.6875
L18.1094 54.6875
L18.1094 46.1875
Q21.3438 51.125 25.7031 53.5625
Q30.0781 56 35.7969 56
Q45.2188 56 50.0469 50.1719
Q54.8906 44.3438 54.8906 33.0156" id="DejaVuSans-6e"/>
     </defs>
     <g transform="translate(456.084197813 56.316525)scale(0.12 -0.12)">
      <use xlink:href="#DejaVuSans-50"/>
      <use x="58.052734375" xlink:href="#DejaVuSans-69"/>
      <use x="85.8359375" xlink:href="#DejaVuSans-6e"/>
      <use x="149.21484375" xlink:href="#DejaVuSans-67"/>
      <use x="212.69140625" xlink:href="#DejaVuSans-20"/>
      <use x="244.478515625" xlink:href="#DejaVuSans-28"/>
      <use x="283.4921875" xlink:href="#DejaVuSans-6d"/>
      <use x="380.904296875" xlink:href="#DejaVuSans-73"/>
      <use x="433.00390625" xlink:href="#DejaVuSans-29"/>
     </g>
    </g>
    <g id="line2d_30">
     <path d="
M453.973 67.9069
L467.968 67.9069" style="fill:none;stroke:#0000ff;"/>
    </g>
    <g id="line2d_31"/>
    <g id="text_16">
     <!-- UDP EF -->
     <defs>
      <path d="
M19.6719 64.7969
L19.6719 8.10938
L31.5938 8.10938
Q46.6875 8.10938 53.6875 14.9375
Q60.6875 21.7812 60.6875 36.5312
Q60.6875 51.1719 53.6875 57.9844
Q46.6875 64.7969 31.5938 64.7969
z

M9.8125 72.9062
L30.0781 72.9062
Q51.2656 72.9062 61.1719 64.0938
Q71.0938 55.2812 71.0938 36.5312
Q71.0938 17.6719 61.125 8.82812
Q51.1719 0 30.0781 0
L9.8125 0
z
" id="DejaVuSans-44"/>
      <path d="
M9.8125 72.9062
L55.9062 72.9062
L55.9062 64.5938
L19.6719 64.5938
L19.6719 43.0156
L54.3906 43.0156
L54.3906 34.7188
L19.6719 34.7188
L19.6719 8.29688
L56.7812 8.29688
L56.7812 0
L9.8125 0
z
" id="DejaVuSans-45"/>
      <path d="
M9.8125 72.9062
L51.7031 72.9062
L51.7031 64.5938
L19.6719 64.5938
L19.6719 43.1094
L48.5781 43.1094
L48.5781 34.8125
L19.6719 34.8125
L19.6719 0
L9.8125 0
z
" id="DejaVuSans-46"/>
      <path d="
M8.6875 72.9062
L18.6094 72.9062
L18.6094 28.6094
Q18.6094 16.8906 22.8438 11.7344
Q27.0938 6.59375 36.625 6.59375
Q46.0938 6.59375 50.3438 11.7344
Q54.5938 16.8906 54.5938 28.6094
L54.5938 72.9062
L64.5 72.9062
L64.5 27.3906
Q64.5 13.1406 57.4375 5.85938
Q50.3906 -1.42188 36.625 -1.42188
Q22.7969 -1.42188 15.7344 5.85938
Q8.6875 13.1406 8.6875 27.3906
z
" id="DejaVuSans-55"/>
     </defs>
     <g transform="translate(478.9632 71.405548125)scale(0.09996 -0.09996)">
      <use xlink:href="#DejaVuSans-55"/>
      <use x="73.193359375" xlink:href="#DejaVuSans-44"/>
      <use x="150.1953125" xlink:href="#DejaVuSans-50"/>
      <use x="210.498046875" xlink:href="#DejaVuSans-20"/>
      <use x="242.28515625" xlink:href="#DejaVuSans-45"/>
      <use x="305.46875" xlink:href="#DejaVuSans-46"/>
     </g>
    </g>
    <g id="line2d_32">
     <path d="
M453.973 82.5792
L467.968 82.5792" style="fill:none;stroke:#008000;"/>
    </g>
    <g id="line2d_33"/>
    <g id="text_17">
     <!-- UDP BK -->
     <defs>
      <path d="
M9.8125 72.9062
L19.6719 72.9062
L19.6719 42.0938
L52.3906 72.9062
L65.0938 72.9062
L28.9062 38.9219
L67.6719 0
L54.6875 0
L19.6719 35.1094
L19.6719 0
L9.8125 0
z
" id="DejaVuSans-4b"/>
      <path d="
M19.6719 34.8125
L19.6719 8.10938
L35.5 8.10938
Q43.4531 8.10938 47.2812 11.4062
Q51.125 14.7031 51.125 21.4844
Q51.125 28.3281 47.2812 31.5625
Q43.4531 34.8125 35.5 34.8125
z

M19.6719 64.7969
L19.6719 42.8281
L34.2812 42.8281
Q41.5 42.8281 45.0312 45.5312
Q48.5781 48.25 48.5781 53.8125
Q48.5781 59.3281 45.0312 62.0625
Q41.5 64.7969 34.2812 64.7969
z

M9.8125 72.9062
L35.0156 72.9062
Q46.2969 72.9062 52.3906 68.2188
Q58.5 63.5312 58.5 54.8906
Q58.5 48.1875 55.375 44.2344
Q52.25 40.2812 46.1875 39.3125
Q53.4688 37.75 57.5 32.7812
Q61.5312 27.8281 61.5312 20.4062
Q61.5312 10.6406 54.8906 5.3125
Q48.25 0 35.9844 0
L9.8125 0
z
" id="DejaVuSans-42"/>
     </defs>
     <g transform="translate(478.9632 86.077801875)scale(0.09996 -0.09996)">
      <use xlink:href="#DejaVuSans-55"/>
      <use x="73.193359375" xlink:href="#DejaVuSans-44"/>
      <use x="150.1953125" xlink:href="#DejaVuSans-50"/>
      <use x="210.498046875" xlink:href="#DejaVuSans-20"/>
      <use x="242.28515625" xlink:href="#DejaVuSans-42"/>
      <use x="310.888671875" xlink:href="#DejaVuSans-4b"/>
     </g>
    </g>
    <g id="line2d_34">
     <path d="
M453.973 97.2515
L467.968 97.2515" style="fill:none;stroke:#ff0000;"/>
    </g>
    <g id="line2d_35"/>
    <g id="text_18">
     <!-- UDP BE -->
     <g transform="translate(478.9632 100.750055625)scale(0.09996 -0.09996)">
      <use xlink:href="#DejaVuSans-55"/>
      <use x="73.193359375" xlink:href="#DejaVuSans-44"/>
      <use x="150.1953125" xlink:href="#DejaVuSans-50"/>
      <use x="210.498046875" xlink:href="#DejaVuSans-20"/>
      <use x="242.28515625" xlink:href="#DejaVuSans-42"/>
      <use x="310.888671875" xlink:href="#DejaVuSans-45"/>
     </g>
    </g>
    <g id="line2d_36">
     <path d="
M453.973 111.924
L467.968 111.924" style="fill:none;stroke:#00bfbf;"/>
    </g>
    <g id="line2d_37"/>
    <g id="text_19">
     <!-- ICMP -->
     <defs>
      <path d="
M9.8125 72.9062
L24.5156 72.9062
L43.1094 23.2969
L61.8125 72.9062
L76.5156 72.9062
L76.5156 0
L66.8906 0
L66.8906 64.0156
L48.0938 14.0156
L38.1875 14.0156
L19.3906 64.0156
L19.3906 0
L9.8125 0
z
" id="DejaVuSans-4d"/>
      <path d="
M9.8125 72.9062
L19.6719 72.9062
L19.6719 0
L9.8125 0
z
" id="DejaVuSans-49"/>
     </defs>
     <g transform="translate(478.9632 115.422309375)scale(0.09996 -0.09996)">
      <use xlink:href="#DejaVuSans-49"/>
      <use x="29.4921875" xlink:href="#DejaVuSans-43"/>
      <use x="99.31640625" xlink:href="#DejaVuSans-4d"/>
      <use x="185.595703125" xlink:href="#DejaVuSans-50"/>
     </g>
    </g>
    <g id="line2d_38">
     <path d="
M453.973 126.596
L467.968 126.596" style="fill:none;stroke:#000000;stroke-width:2;"/>
    </g>
    <g id="line2d_39"/>
    <g id="text_20">
     <!-- Avg -->
     <defs>
      <path d="
M34.1875 63.1875
L20.7969 26.9062
L47.6094 26.9062
z

M28.6094 72.9062
L39.7969 72.9062
L67.5781 0
L57.3281 0
L50.6875 18.7031
L17.8281 18.7031
L11.1875 0
L0.78125 0
z
" id="DejaVuSans-41"/>
     </defs>
     <g transform="translate(478.9632 130.094563125)scale(0.09996 -0.09996)">
      <use xlink:href="#DejaVuSans-41"/>
      <use x="62.533203125" xlink:href="#DejaVuSans-76"/>
      <use x="121.712890625" xlink:href="#DejaVuSans-67"/>
     </g>
    </g>
   </g>
  </g>
  <g id="text_21">
   <!-- Realtime Response Under Load -->
   <defs>
    <path d="
M44.3906 34.1875
Q47.5625 33.1094 50.5625 29.5938
Q53.5625 26.0781 56.5938 19.9219
L66.6094 0
L56 0
L46.6875 18.7031
Q43.0625 26.0312 39.6719 28.4219
Q36.2812 30.8125 30.4219 30.8125
L19.6719 30.8125
L19.6719 0
L9.8125 0
L9.8125 72.9062
L32.0781 72.9062
Q44.5781 72.9062 50.7344 67.6719
Q56.8906 62.4531 56.8906 51.9062
Q56.8906 45.0156 53.6875 40.4688
Q50.4844 35.9375 44.3906 34.1875
M19.6719 64.7969
L19.6719 38.9219
L32.0781 38.9219
Q39.2031 38.9219 42.8438 42.2188
Q46.4844 45.5156 46.4844 51.9062
Q46.4844 58.2969 42.8438 61.5469
Q39.2031 64.7969 32.0781 64.7969
z
" id="DejaVuSans-52"/>
    <path d="
M45.4062 46.3906
L45.4062 75.9844
L54.3906 75.9844
L54.3906 0
L45.4062 0
L45.4062 8.20312
Q42.5781 3.32812 38.25 0.953125
Q33.9375 -1.42188 27.875 -1.42188
Q17.9688 -1.42188 11.7344 6.48438
Q5.51562 14.4062 5.51562 27.2969
Q5.51562 40.1875 11.7344 48.0938
Q17.9688 56 27.875 56
Q33.9375 56 38.25 53.625
Q42.5781 51.2656 45.4062 46.3906
M14.7969 27.2969
Q14.7969 17.3906 18.875 11.75
Q22.9531 6.10938 30.0781 6.10938
Q37.2031 6.10938 41.2969 11.75
Q45.4062 17.3906 45.4062 27.2969
Q45.4062 37.2031 41.2969 42.8438
Q37.2031 48.4844 30.0781 48.4844
Q22.9531 48.4844 18.875 42.8438
Q14.7969 37.2031 14.7969 27.2969" id="DejaVuSans-64"/>
    <path d="
M9.8125 72.9062
L19.6719 72.9062
L19.6719 8.29688
L55.1719 8.29688
L55.1719 0
L9.8125 0
z
" id="DejaVuSans-4c"/>
   </defs>
   <g transform="translate(179.45515625 19.2778125)scale(0.14 -0.14)">
    <use xlink:href="#DejaVuSans-52"/>
    <use x="64.982421875" xlink:href="#DejaVuSans-65"/>
    <use x="126.505859375" xlink:href="#DejaVuSans-61"/>
    <use x="187.78515625" xlink:href="#DejaVuSans-6c"/>
    <use x="215.568359375" xlink:href="#DejaVuSans-74"/>
    <use x="254.77734375" xlink:href="#DejaVuSans-69"/>
    <use x="282.560546875" xlink:href="#DejaVuSans-6d"/>
    <use x="379.97265625" xlink:href="#DejaVuSans-65"/>
    <use x="441.49609375" xlink:href="#DejaVuSans-20"/>
    <use x="473.283203125" xlink:href="#DejaVuSans-52"/>
    <use x="538.265625" xlink:href="#DejaVuSans-65"/>
    <use x="599.7890625" xlink:href="#DejaVuSans-73"/>
    <use x="651.888671875" xlink:href="#DejaVuSans-70"/>
    <use x="715.365234375" xlink:href="#DejaVuSans-6f"/>
    <use x="776.546875" xlink:href="#DejaVuSans-6e"/>
    <use x="839.92578125" xlink:href="#DejaVuSans-73"/>
    <use x="892.025390625" xlink:href="#DejaVuSans-65"/>
    <use x="953.548828125" xlink:href="#DejaVuSans-20"/>
    <use x="985.3359375" xlink:href="#DejaVuSans-55"/>
    <use x="1058.52929688" xlink:href="#DejaVuSans-6e"/>
    <use x="1121.90820312" xlink:href="#DejaVuSans-64"/>
    <use x="1185.38476562" xlink:href="#DejaVuSans-65"/>
    <use x="1246.90820312" xlink:href="#DejaVuSans-72"/>
    <use x="1288.02148438" xlink:href="#DejaVuSans-20"/>
    <use x="1319.80859375" xlink:href="#DejaVuSans-4c"/>
    <use x="1373.77148438" xlink:href="#DejaVuSans-6f"/>
    <use x="1434.953125" xlink:href="#DejaVuSans-61"/>
    <use x="1496.23242188" xlink:href="#DejaVuSans-64"/>
   </g>
   <!-- Ping CDF plot -->
   <g transform="translate(241.10984375 35.5370625)scale(0.14 -0.14)">
    <use xlink:href="#DejaVuSans-50"/>
    <use x="58.052734375" xlink:href="#DejaVuSans-69"/>
    <use x="85.8359375" xlink:href="#DejaVuSans-6e"/>
    <use x="149.21484375" xlink:href="#DejaVuSans-67"/>
    <use x="212.69140625" xlink:href="#DejaVuSans-20"/>
    <use x="244.478515625" xlink:href="#DejaVuSans-43"/>
    <use x="314.302734375" xlink:href="#DejaVuSans-44"/>
    <use x="391.3046875" xlink:href="#DejaVuSans-46"/>
    <use x="448.82421875" xlink:href="#DejaVuSans-20"/>
    <use x="480.611328125" xlink:href="#DejaVuSans-70"/>
    <use x="544.087890625" xlink:href="#DejaVuSans-6c"/>
    <use x="571.87109375" xlink:href="#DejaVuSans-6f"/>
    <use x="633.052734375" xlink:href="#DejaVuSans-74"/>
   </g>
  </g>
  <g id="text_22">
   <!-- Local/remote: ida/172.27.224.1 - Time: 2012-12-01 18:14:08.076908 - Length/step: 60s/0.20s -->
   <defs>
    <path d="
M11.7188 12.4062
L22.0156 12.4062
L22.0156 0
L11.7188 0
z

M11.7188 51.7031
L22.0156 51.7031
L22.0156 39.3125
L11.7188 39.3125
z
" id="DejaVuSans-3a"/>
    <path d="
M25.3906 72.9062
L33.6875 72.9062
L8.29688 -9.28125
L0 -9.28125
z
" id="DejaVuSans-2f"/>
    <path d="
M54.8906 33.0156
L54.8906 0
L45.9062 0
L45.9062 32.7188
Q45.9062 40.4844 42.875 44.3281
Q39.8438 48.1875 33.7969 48.1875
Q26.5156 48.1875 22.3125 43.5469
Q18.1094 38.9219 18.1094 30.9062
L18.1094 0
L9.07812 0
L9.07812 75.9844
L18.1094 75.9844
L18.1094 46.1875
Q21.3438 51.125 25.7031 53.5625
Q30.0781 56 35.7969 56
Q45.2188 56 50.0469 50.1719
Q54.8906 44.3438 54.8906 33.0156" id="DejaVuSans-68"/>
    <path d="
M4.89062 31.3906
L31.2031 31.3906
L31.2031 23.3906
L4.89062 23.3906
z
" id="DejaVuSans-2d"/>
    <path d="
M8.20312 72.9062
L55.0781 72.9062
L55.0781 68.7031
L28.6094 0
L18.3125 0
L43.2188 64.5938
L8.20312 64.5938
z
" id="DejaVuSans-37"/>
    <path d="
M10.9844 1.51562
L10.9844 10.5
Q14.7031 8.73438 18.5 7.8125
Q22.3125 6.89062 25.9844 6.89062
Q35.75 6.89062 40.8906 13.4531
Q46.0469 20.0156 46.7812 33.4062
Q43.9531 29.2031 39.5938 26.9531
Q35.25 24.7031 29.9844 24.7031
Q19.0469 24.7031 12.6719 31.3125
Q6.29688 37.9375 6.29688 49.4219
Q6.29688 60.6406 12.9375 67.4219
Q19.5781 74.2188 30.6094 74.2188
Q43.2656 74.2188 49.9219 64.5156
Q56.5938 54.8281 56.5938 36.375
Q56.5938 19.1406 48.4062 8.85938
Q40.2344 -1.42188 26.4219 -1.42188
Q22.7031 -1.42188 18.8906 -0.6875
Q15.0938 0.046875 10.9844 1.51562
M30.6094 32.4219
Q37.25 32.4219 41.125 36.9531
Q45.0156 41.5 45.0156 49.4219
Q45.0156 57.2812 41.125 61.8438
Q37.25 66.4062 30.6094 66.4062
Q23.9688 66.4062 20.0938 61.8438
Q16.2188 57.2812 16.2188 49.4219
Q16.2188 41.5 20.0938 36.9531
Q23.9688 32.4219 30.6094 32.4219" id="DejaVuSans-39"/>
    <path d="
M48.7812 52.5938
L48.7812 44.1875
Q44.9688 46.2969 41.1406 47.3438
Q37.3125 48.3906 33.4062 48.3906
Q24.6562 48.3906 19.8125 42.8438
Q14.9844 37.3125 14.9844 27.2969
Q14.9844 17.2812 19.8125 11.7344
Q24.6562 6.20312 33.4062 6.20312
Q37.3125 6.20312 41.1406 7.25
Q44.9688 8.29688 48.7812 10.4062
L48.7812 2.09375
Q45.0156 0.34375 40.9844 -0.53125
Q36.9688 -1.42188 32.4219 -1.42188
Q20.0625 -1.42188 12.7812 6.34375
Q5.51562 14.1094 5.51562 27.2969
Q5.51562 40.6719 12.8594 48.3281
Q20.2188 56 33.0156 56
Q37.1562 56 41.1094 55.1406
Q45.0625 54.2969 48.7812 52.5938" id="DejaVuSans-63"/>
    <path d="
M-0.296875 72.9062
L61.375 72.9062
L61.375 64.5938
L35.5 64.5938
L35.5 0
L25.5938 0
L25.5938 64.5938
L-0.296875 64.5938
z
" id="DejaVuSans-54"/>
   </defs>
   <g transform="translate(99.975625 428.17625)scale(0.08 -0.08)">
    <use xlink:href="#DejaVuSans-4c"/>
    <use x="53.962890625" xlink:href="#DejaVuSans-6f"/>
    <use x="115.14453125" xlink:href="#DejaVuSans-63"/>
    <use x="170.125" xlink:href="#DejaVuSans-61"/>
    <use x="231.404296875" xlink:href="#DejaVuSans-6c"/>
    <use x="259.1875" xlink:href="#DejaVuSans-2f"/>
    <use x="292.87890625" xlink:href="#DejaVuSans-72"/>
    <use x="331.7421875" xlink:href="#DejaVuSans-65"/>
    <use x="393.265625" xlink:href="#DejaVuSans-6d"/>
    <use x="490.677734375" xlink:href="#DejaVuSans-6f"/>
    <use x="551.859375" xlink:href="#DejaVuSans-74"/>
    <use x="591.068359375" xlink:href="#DejaVuSans-65"/>
    <use x="652.591796875" xlink:href="#DejaVuSans-3a"/>
    <use x="686.283203125" xlink:href="#DejaVuSans-20"/>
    <use x="718.0703125" xlink:href="#DejaVuSans-69"/>
    <use x="745.853515625" xlink:href="#DejaVuSans-64"/>
    <use x="809.330078125" xlink:href="#DejaVuSans-61"/>
    <use x="870.609375" xlink:href="#DejaVuSans-2f"/>
    <use x="904.30078125" xlink:href="#DejaVuSans-31"/>
    <use x="967.923828125" xlink:href="#DejaVuSans-37"/>
    <use x="1031.546875" xlink:href="#DejaVuSans-32"/>
    <use x="1095.16992188" xlink:href="#DejaVuSans-2e"/>
    <use x="1126.95703125" xlink:href="#DejaVuSans-32"/>
    <use x="1190.58007812" xlink:href="#DejaVuSans-37"/>
    <use x="1254.203125" xlink:href="#DejaVuSans-2e"/>
    <use x="1285.99023438" xlink:href="#DejaVuSans-32"/>
    <use x="1349.61328125" xlink:href="#DejaVuSans-32"/>
    <use x="1413.23632812" xlink:href="#DejaVuSans-34"/>
    <use x="1476.859375" xlink:href="#DejaVuSans-2e"/>
    <use x="1508.64648438" xlink:href="#DejaVuSans-31"/>
    <use x="1572.26953125" xlink:href="#DejaVuSans-20"/>
    <use x="1604.05664062" xlink:href="#DejaVuSans-2d"/>
    <use x="1640.140625" xlink:href="#DejaVuSans-20"/>
    <use x="1671.92773438" xlink:href="#DejaVuSans-54"/>
    <use x="1729.88671875" xlink:href="#DejaVuSans-69"/>
    <use x="1757.66992188" xlink:href="#DejaVuSans-6d"/>
    <use x="1855.08203125" xlink:href="#DejaVuSans-65"/>
    <use x="1916.60546875" xlink:href="#DejaVuSans-3a"/>
    <use x="1950.296875" xlink:href="#DejaVuSans-20"/>
    <use x="1982.08398438" xlink:href="#DejaVuSans-32"/>
    <use x="2045.70703125" xlink:href="#DejaVuSans-30"/>
    <use x="2109.33007812" xlink:href="#DejaVuSans-31"/>
    <use x="2172.953125" xlink:href="#DejaVuSans-32"/>
    <use x="2236.57617188" xlink:href="#DejaVuSans-2d"/>
    <use x="2272.66015625" xlink:href="#DejaVuSans-31"/>
    <use x="2336.28320312" xlink:href="#DejaVuSans-32"/>
    <use x="2399.90625" xlink:href="#DejaVuSans-2d"/>
    <use x="2435.99023438" xlink:href="#DejaVuSans-30"/>
    <use x="2499.61328125" xlink:href="#DejaVuSans-31"/>
    <use x="2563.23632812" xlink:href="#DejaVuSans-20"/>
    <use x="2595.0234375" xlink:href="#DejaVuSans-31"/>
    <use x="2658.64648438" xlink:href="#DejaVuSans-38"/>
    <use x="2722.26953125" xlink:href="#DejaVuSans-3a"/>
    <use x="2755.9609375" xlink:href="#DejaVuSans-31"/>
    <use x="2819.58398438" xlink:href="#DejaVuSans-34"/>
    <use x="2883.20703125" xlink:href="#DejaVuSans-3a"/>
    <use x="2916.8984375" xlink:href="#DejaVuSans-30"/>
    <use x="2980.52148438" xlink:href="#DejaVuSans-38"/>
    <use x="3044.14453125" xlink:href="#DejaVuSans-2e"/>
    <use x="3075.93164062" xlink:href="#DejaVuSans-30"/>
    <use x="3139.5546875" xlink:href="#DejaVuSans-37"/>
    <use x="3203.17773438" xlink:href="#DejaVuSans-36"/>
    <use x="3266.80078125" xlink:href="#DejaVuSans-39"/>
    <use x="3330.42382812" xlink:href="#DejaVuSans-30"/>
    <use x="3394.046875" xlink:href="#DejaVuSans-38"/>
    <use x="3457.66992188" xlink:href="#DejaVuSans-20"/>
    <use x="3489.45703125" xlink:href="#DejaVuSans-2d"/>
    <use x="3525.54101562" xlink:href="#DejaVuSans-20"/>
    <use x="3557.328125" xlink:href="#DejaVuSans-4c"/>
    <use x="3611.29101562" xlink:href="#DejaVuSans-65"/>
    <use x="3672.81445312" xlink:href="#DejaVuSans-6e"/>
    <use x="3736.19335938" xlink:href="#DejaVuSans-67"/>
    <use x="3799.66992188" xlink:href="#DejaVuSans-74"/>
    <use x="3838.87890625" xlink:href="#DejaVuSans-68"/>
    <use x="3902.2578125" xlink:href="#DejaVuSans-2f"/>
    <use x="3935.94921875" xlink:href="#DejaVuSans-73"/>
    <use x="3988.04882812" xlink:href="#DejaVuSans-74"/>
    <use x="4027.2578125" xlink:href="#DejaVuSans-65"/>
    <use x="4088.78125" xlink:href="#DejaVuSans-70"/>
    <use x="4152.2578125" xlink:href="#DejaVuSans-3a"/>
    <use x="4185.94921875" xlink:href="#DejaVuSans-20"/>
    <use x="4217.73632812" xlink:href="#DejaVuSans-36"/>
    <use x="4281.359375" xlink:href="#DejaVuSans-30"/>
    <use x="4344.98242188" xlink:href="#DejaVuSans-73"/>
    <use x="4397.08203125" xlink:href="#DejaVuSans-2f"/>
    <use x="4430.7734375" xlink:href="#DejaVuSans-30"/>
    <use x="4494.39648438" xlink:href="#DejaVuSans-2e"/>
    <use x="4526.18359375" xlink:href="#DejaVuSans-32"/>
    <use x="4589.80664062" xlink:href="#DejaVuSans-30"/>
    <use x="4653.4296875" xlink:href="#DejaVuSans-73"/>
   </g>
  </g>
 </g>
 <defs>
  <clipPath id="p465f515fd4">
   <rect height="345.6" width="357.12" x="72.0" y="43.2"/>
  </clipPath>
 </defs>
</svg>
